<?xml version="1.0" standalone="no"?>
<!DOCTYPE svg PUBLIC "-//W3C//DTD SVG 20010904//EN"
 "http://www.w3.org/TR/2001/REC-SVG-20010904/DTD/svg10.dtd">
<svg version="1.0" xmlns="http://www.w3.org/2000/svg"
 width="200.000000pt" height="100.000000pt" viewBox="0 0 2400.000000 2400.000000"
 preserveAspectRatio="xMidYMid meet">

<g transform="translate(0.000000,2400.000000) scale(0.100000,-0.100000)"
fill="black" stroke="none">
<path d="M12623 13893 l-223 -3 -806 -848 c-444 -466 -827 -867 -851 -892
l-44 -45 32 70 c74 165 110 404 90 605 -59 585 -419 1034 -876 1092 -71 9
-317 9 -1057 0 -1419 -18 -2282 -34 -2291 -42 -5 -4 -66 -237 -136 -518 l-128
-510 386 -6 c212 -3 928 -8 1591 -12 1319 -6 1282 -4 1341 -64 21 -20 29 -38
29 -64 0 -44 -31 -70 -101 -85 -34 -8 -553 -11 -1669 -11 -1533 0 -1619 -1
-1624 -17 -426 -1442 -696 -2364 -696 -2372 0 -8 158 -10 563 -9 l562 3 162
640 c89 352 165 650 168 662 l5 22 1338 4 c1453 4 1374 1 1593 61 105 28 222
74 278 108 47 29 61 44 -754 -811 -363 -381 -661 -697 -663 -702 -2 -5 273 -9
705 -9 l708 1 1075 1122 c591 617 1077 1121 1080 1119 4 -2 154 -857 370
-2109 l23 -133 593 0 c327 0 594 4 594 8 0 5 -187 848 -415 1873 -228 1025
-415 1867 -415 1871 0 4 -71 7 -157 6 -87 -2 -258 -4 -380 -5z"/>
<path d="M16236 13869 c-898 -65 -1622 -454 -2046 -1099 -173 -264 -298 -604
-341 -930 -18 -132 -15 -411 5 -540 95 -612 444 -1027 961 -1147 76 -17 154
-18 1550 -15 808 2 1470 4 1472 5 6 7 342 1101 339 1105 -8 7 -504 14 -1641
22 -1245 8 -1184 5 -1324 72 -80 38 -177 131 -215 206 -85 167 -72 391 34 602
159 316 487 530 885 579 50 6 250 11 450 11 422 0 1751 17 2041 26 l201 6 151
541 c83 298 149 543 146 546 -17 18 -2433 26 -2668 10z"/>
<path d="M18987 13332 c-86 -295 -157 -540 -157 -545 0 -4 898 -6 1996 -5
l1997 3 158 540 c88 297 159 541 159 543 0 1 -899 2 -1997 2 l-1998 0 -158
-538z"/>
<path d="M2765 13823 c-563 -73 -1045 -483 -1235 -1050 -53 -160 -73 -279 -73
-438 2 -410 195 -681 563 -788 75 -21 80 -22 1265 -27 1136 -5 1192 -6 1228
-24 92 -46 117 -138 54 -201 -65 -65 105 -63 -2612 -21 -418 7 -763 9 -768 6
-4 -3 -76 -238 -160 -521 -85 -282 -157 -524 -161 -537 l-7 -22 1903 2 1903 3
100 27 c120 33 181 56 283 107 327 166 585 502 678 885 99 409 9 794 -243
1037 -137 133 -270 200 -495 252 -91 20 -119 21 -1243 26 l-1150 6 -42 23
c-49 25 -63 47 -63 94 0 53 34 94 105 128 39 19 83 20 1712 20 l1672 0 11 38
c5 20 68 250 138 510 l129 472 -1731 -1 c-952 -1 -1744 -4 -1761 -6z"/>
<path d="M18745 12498 c-8 -29 -80 -273 -159 -543 l-143 -490 1995 -3 c1097
-1 1996 -1 1998 1 1 1 70 234 153 517 84 283 156 527 161 543 l9 27 -1999 0
-1999 0 -16 -52z"/>
<path d="M18375 11190 c-23 -72 -305 -1036 -305 -1044 0 -3 899 -5 1997 -4
l1997 3 159 539 c87 296 157 540 155 542 -2 2 -900 4 -1996 6 l-1992 3 -15
-45z"/>
</g>
</svg>
