<?xml version="1.0" standalone="no"?>
<!DOCTYPE svg PUBLIC "-//W3C//DTD SVG 20010904//EN"
 "http://www.w3.org/TR/2001/REC-SVG-20010904/DTD/svg10.dtd">
<svg version="1.0" xmlns="http://www.w3.org/2000/svg"
 width="300.000000pt" height="225.000000pt" viewBox="0 0 149.000000 149.000000"
 preserveAspectRatio="xMidYMid meet">

<g transform="translate(0.000000,149.000000) scale(0.100000,-0.100000)"
fill="black" stroke="none">
<path d="M645 1481 c-170 -27 -298 -93 -421 -215 -150 -151 -218 -312 -218
-521 0 -209 68 -370 218 -521 149 -149 309 -216 511 -217 124 0 156 4 238 32
119 41 198 92 292 186 151 150 218 311 218 520 0 209 -67 370 -217 521 -102
101 -196 157 -325 193 -84 23 -222 34 -296 22z m244 -114 c8 -11 6 -18 -8 -31
-16 -15 -20 -15 -31 -1 -15 18 -7 45 13 45 8 0 20 -6 26 -13z m-252 -133 c3
-8 -1 -23 -10 -31 -14 -14 -17 -14 -32 1 -14 13 -15 19 -5 31 16 20 39 19 47
-1z m-221 -209 c80 -48 124 -83 124 -100 0 -14 178 -118 189 -110 14 8 41 -5
41 -21 0 -18 140 -98 168 -96 16 1 26 -4 29 -16 2 -11 39 -38 80 -62 42 -24
78 -51 80 -61 3 -9 25 -28 49 -41 25 -13 44 -30 44 -40 0 -9 8 -19 19 -23 10
-3 27 -15 37 -26 16 -18 16 -21 2 -35 -14 -14 -19 -14 -49 2 -19 10 -40 17
-46 16 -7 -2 -33 9 -58 24 -25 14 -52 24 -60 20 -8 -3 -46 13 -85 35 -39 23
-77 38 -85 35 -22 -8 -45 4 -45 23 0 21 -126 95 -165 96 -21 0 -33 7 -41 24
-15 30 -174 123 -189 111 -6 -5 -22 -6 -36 -3 -37 10 -199 104 -199 116 0 20
95 177 107 177 7 0 47 -20 89 -45z m674 2 c0 -8 -3 -17 -7 -20 -9 -9 -34 13
-27 24 8 14 34 11 34 -4z m-299 -437 c22 -12 26 -59 7 -78 -19 -19 -55 -14
-72 9 -16 23 -12 47 12 67 19 15 28 15 53 2z"/>
</g>
</svg>
